<?xml version="1.0" encoding="UTF-8"?>
<svg xmlns="http://www.w3.org/2000/svg" xmlns:xlink="http://www.w3.org/1999/xlink" width="147.9pt" height="191.16pt" viewBox="0 0 147.9 191.16" version="1.1">
<g id="surface1">
<path style=" stroke:none;fill-rule:nonzero;fill:rgb(99.609375%,92.96875%,75.389099%);fill-opacity:1;" d="M 119.929688 83.527344 C 119.929688 104.347656 100.753906 121.226563 77.101563 121.226563 C 53.449219 121.226563 34.273438 104.347656 34.273438 83.527344 C 34.273438 62.707031 53.449219 45.832031 77.101563 45.832031 C 100.753906 45.832031 119.929688 62.707031 119.929688 83.527344 "/>
<path style=" stroke:none;fill-rule:nonzero;fill:rgb(100%,100%,100%);fill-opacity:1;" d="M 75.65625 92.820313 C 72.472656 98.84375 65.570313 101.4375 60.238281 98.617188 C 54.90625 95.800781 53.164063 88.632813 56.347656 82.609375 C 59.53125 76.589844 66.433594 73.996094 71.765625 76.8125 C 77.097656 79.632813 78.84375 86.800781 75.65625 92.820313 "/>
<path style=" stroke:none;fill-rule:nonzero;fill:rgb(100%,100%,100%);fill-opacity:1;" d="M 79.644531 91.808594 C 82.828125 97.828125 89.730469 100.425781 95.0625 97.605469 C 100.394531 94.785156 102.140625 87.617188 98.957031 81.597656 C 95.773438 75.578125 88.871094 72.980469 83.535156 75.800781 C 78.203125 78.621094 76.460938 85.785156 79.644531 91.808594 "/>
<path style="fill:none;stroke-width:7.5;stroke-linecap:butt;stroke-linejoin:miter;stroke:rgb(0%,0%,0%);stroke-opacity:1;stroke-miterlimit:4;" d="M 507.8125 1118.709375 L 605.9375 1203.475 " transform="matrix(0.1,0,0,-0.1,0,191.16)"/>
<path style="fill:none;stroke-width:7.5;stroke-linecap:butt;stroke-linejoin:miter;stroke:rgb(0%,0%,0%);stroke-opacity:1;stroke-miterlimit:4;" d="M 931.601563 1230.232812 L 1043.125 1149.920312 " transform="matrix(0.1,0,0,-0.1,0,191.16)"/>
<path style="fill:none;stroke-width:7.5;stroke-linecap:butt;stroke-linejoin:miter;stroke:rgb(0%,0%,0%);stroke-opacity:1;stroke-miterlimit:4;" d="M 745.976563 803.904687 C 745.976563 803.904687 843.90625 824.178125 864.179688 797.146875 " transform="matrix(0.1,0,0,-0.1,0,191.16)"/>
<path style=" stroke:none;fill-rule:nonzero;fill:rgb(0%,0%,0%);fill-opacity:1;" d="M 72.574219 94.054688 C 72.574219 94.707031 72.042969 95.238281 71.390625 95.238281 C 70.738281 95.238281 70.210938 94.707031 70.210938 94.054688 C 70.210938 93.402344 70.738281 92.875 71.390625 92.875 C 72.042969 92.875 72.574219 93.402344 72.574219 94.054688 "/>
<path style=" stroke:none;fill-rule:nonzero;fill:rgb(0%,0%,0%);fill-opacity:1;" d="M 86.417969 93.550781 C 86.417969 94.199219 85.886719 94.730469 85.234375 94.730469 C 84.582031 94.730469 84.054688 94.199219 84.054688 93.550781 C 84.054688 92.894531 84.582031 92.367188 85.234375 92.367188 C 85.886719 92.367188 86.417969 92.894531 86.417969 93.550781 "/>
<path style=" stroke:none;fill-rule:nonzero;fill:rgb(98.046875%,96.09375%,30.589294%);fill-opacity:1;" d="M 72.574219 44.929688 C 72.574219 44.929688 68.183594 39.1875 48.601563 38.511719 C 48.601563 38.511719 57.71875 42.902344 57.042969 45.601563 L 36.105469 61.136719 C 36.105469 61.136719 59.40625 55.734375 59.070313 56.40625 L 51.976563 69.914063 L 74.9375 54.71875 C 74.9375 54.71875 91.820313 57.082031 103.636719 65.863281 L 92.15625 51.34375 C 92.15625 51.34375 107.015625 52.019531 107.351563 52.019531 C 107.6875 52.019531 88.441406 40.539063 87.09375 42.566406 L 94.859375 34.460938 L 72.574219 44.929688 "/>
<path style=" stroke:none;fill-rule:nonzero;fill:rgb(25.097656%,68.554688%,52.146912%);fill-opacity:1;" d="M 44.210938 108.40625 C 44.210938 108.40625 32.730469 122.585938 43.535156 128.324219 C 54.339844 134.066406 42.859375 128.664063 42.859375 128.664063 L 42.859375 136.089844 C 42.859375 136.089844 77.976563 144.53125 109.714844 138.453125 L 109.039063 130.011719 C 109.039063 130.011719 121.871094 130.351563 107.6875 109.417969 C 107.6875 109.417969 78.3125 136.429688 44.210938 108.40625 "/>
<path style=" stroke:none;fill-rule:nonzero;fill:rgb(99.609375%,92.96875%,75.389099%);fill-opacity:1;" d="M 83.714844 121.910156 C 83.714844 121.910156 76.285156 122.921875 76.285156 128.664063 C 76.285156 128.664063 76.964844 134.742188 83.378906 133.726563 C 83.378906 133.726563 89.457031 135.078125 89.457031 127.988281 C 89.457031 127.988281 92.496094 125.960938 88.105469 123.9375 L 83.714844 121.910156 "/>
<path style="fill-rule:nonzero;fill:rgb(0%,0%,0%);fill-opacity:1;stroke-width:5;stroke-linecap:butt;stroke-linejoin:miter;stroke:rgb(0%,0%,0%);stroke-opacity:1;stroke-miterlimit:4;" d="M 766.25 699.25625 L 749.375 506.795312 " transform="matrix(0.1,0,0,-0.1,0,191.16)"/>
<path style=" stroke:none;fill-rule:nonzero;fill:rgb(99.609375%,92.96875%,75.389099%);fill-opacity:1;" d="M 64.132813 123.597656 C 64.132813 123.597656 68.859375 120.558594 73.25 124.949219 C 77.640625 129.339844 71.898438 134.742188 68.859375 133.726563 C 68.859375 133.726563 61.09375 135.753906 61.09375 127.988281 L 64.132813 123.597656 "/>
<path style=" stroke:none;fill-rule:nonzero;fill:rgb(11.376953%,30.979919%,12.547302%);fill-opacity:1;" d="M 45.898438 136.429688 L 46.234375 144.871094 C 46.234375 144.871094 82.027344 145.546875 105.660156 146.898438 L 106.335938 138.792969 C 106.335938 138.792969 63.457031 142.507813 45.898438 136.429688 "/>
<path style=" stroke:none;fill-rule:nonzero;fill:rgb(0%,0%,0%);fill-opacity:1;" d="M 39.484375 146.898438 L 110.726563 147.910156 C 110.726563 147.910156 86.753906 142.167969 74.9375 145.546875 C 74.9375 145.546875 50.625 141.496094 39.484375 146.898438 "/>
</g>
</svg>
