<?xml version="1.0" encoding="UTF-8"?>
<svg xmlns="http://www.w3.org/2000/svg" xmlns:xlink="http://www.w3.org/1999/xlink" width="193pt" height="193pt" viewBox="0 0 193 193" version="1.1">
<g id="surface1">
<path style=" stroke:none;fill-rule:evenodd;fill:rgb(100%,100%,100%);fill-opacity:1;" d="M 0 0.242188 L 192.757813 0.242188 L 192.757813 193 L 0 193 L 0 0.242188 "/>
<path style=" stroke:none;fill-rule:nonzero;fill:rgb(57.299805%,43.899536%,36.898804%);fill-opacity:1;" d="M 167.878906 158.65625 L 161.152344 176.933594 L 35.117188 176.933594 L 27.34375 156.765625 L 167.878906 158.65625 "/>
<path style=" stroke:none;fill-rule:nonzero;fill:rgb(94.499207%,33.699036%,28.599548%);fill-opacity:1;" d="M 36.308594 95.988281 C 36.308594 95.988281 23.421875 104.390625 12.78125 124.554688 L 21.183594 140.800781 C 21.183594 140.800781 18.941406 152.566406 29.027344 160.96875 C 39.109375 169.371094 71.597656 173.851563 98.488281 171.050781 C 98.488281 171.050781 110.808594 171.609375 123.132813 166.007813 C 135.457031 160.40625 158.984375 162.089844 158.984375 162.089844 C 158.984375 162.089844 178.027344 162.648438 174.109375 140.800781 L 177.46875 118.957031 C 177.46875 118.957031 171.867188 111.113281 167.945313 104.390625 C 164.023438 97.667969 145.539063 97.109375 145.539063 97.109375 C 145.539063 97.109375 104.089844 118.957031 36.308594 95.988281 "/>
<path style=" stroke:none;fill-rule:nonzero;fill:rgb(99.598694%,88.598633%,79.998779%);fill-opacity:1;" d="M 31.265625 75.261719 C 31.265625 45.871094 60.230469 22.046875 95.964844 22.046875 C 131.699219 22.046875 160.664063 45.871094 160.664063 75.261719 C 160.664063 104.652344 131.699219 128.476563 95.964844 128.476563 C 60.230469 128.476563 31.265625 104.652344 31.265625 75.261719 "/>
<path style=" stroke:none;fill-rule:nonzero;fill:rgb(13.699341%,12.199402%,12.5%);fill-opacity:1;" d="M 101.847656 129.597656 C 101.847656 129.597656 104.089844 137.441406 104.089844 141.363281 C 104.089844 145.28125 106.328125 145.28125 104.648438 152.566406 C 102.96875 159.847656 104.089844 163.769531 102.40625 168.808594 C 102.40625 168.808594 103.597656 167.058594 104.648438 159.707031 C 105.699219 152.355469 105.066406 155.925781 105.699219 149.625 C 106.328125 143.320313 104.859375 144.164063 104.648438 138.492188 C 104.4375 132.820313 101.847656 129.597656 101.847656 129.597656 "/>
<path style=" stroke:none;fill-rule:nonzero;fill:rgb(13.699341%,12.199402%,12.5%);fill-opacity:1;" d="M 101.285156 134.605469 C 101.285156 136.054688 100.628906 137.230469 99.816406 137.230469 C 99.003906 137.230469 98.34375 136.054688 98.34375 134.605469 C 98.34375 133.15625 99.003906 131.976563 99.816406 131.976563 C 100.628906 131.976563 101.285156 133.15625 101.285156 134.605469 "/>
<path style=" stroke:none;fill-rule:nonzero;fill:rgb(13.699341%,12.199402%,12.5%);fill-opacity:1;" d="M 103.175781 149.519531 C 103.175781 150.96875 102.519531 152.144531 101.707031 152.144531 C 100.894531 152.144531 100.234375 150.96875 100.234375 149.519531 C 100.234375 148.070313 100.894531 146.894531 101.707031 146.894531 C 102.519531 146.894531 103.175781 148.070313 103.175781 149.519531 "/>
<path style=" stroke:none;fill-rule:nonzero;fill:rgb(13.699341%,12.199402%,12.5%);fill-opacity:1;" d="M 101.285156 164.011719 C 101.285156 165.464844 100.628906 166.640625 99.816406 166.640625 C 99.003906 166.640625 98.34375 165.464844 98.34375 164.011719 C 98.34375 162.5625 99.003906 161.386719 99.816406 161.386719 C 100.628906 161.386719 101.285156 162.5625 101.285156 164.011719 "/>
<path style=" stroke:none;fill-rule:nonzero;fill:rgb(90.99884%,81.599426%,74.099731%);fill-opacity:1;" d="M 48.5625 101.519531 C 48.5625 101.519531 64.527344 119.375 88.261719 121.898438 C 112 124.417969 124.605469 118.535156 147.5 96.476563 L 148.972656 96.476563 C 148.972656 96.476563 125.445313 122.527344 104.015625 123.15625 C 82.589844 123.785156 68.9375 121.683594 47.300781 102.148438 L 48.5625 101.519531 "/>
<path style=" stroke:none;fill-rule:nonzero;fill:rgb(87.799072%,78.799438%,71.398926%);fill-opacity:1;" d="M 91.835938 115.59375 C 91.835938 115.59375 100.445313 120.214844 108.21875 115.382813 C 108.21875 115.382813 109.6875 114.753906 108.21875 116.433594 C 106.75 118.113281 99.394531 120.425781 91.203125 116.433594 C 91.203125 116.433594 89.3125 115.175781 91.835938 115.59375 "/>
<path style=" stroke:none;fill-rule:nonzero;fill:rgb(13.699341%,12.199402%,12.5%);fill-opacity:1;" d="M 100.65625 106.140625 C 100.65625 106.140625 97.085938 107.820313 96.035156 109.921875 C 94.984375 112.023438 97.507813 113.914063 100.027344 113.914063 C 102.546875 113.914063 104.226563 113.914063 105.066406 111.183594 C 105.90625 108.453125 105.066406 106.140625 100.65625 106.140625 "/>
<path style=" stroke:none;fill-rule:nonzero;fill:rgb(69.398499%,88.999939%,97.999573%);fill-opacity:1;" d="M 31.546875 71.480469 C 31.546875 71.480469 61.792969 54.886719 98.976563 53.203125 C 136.15625 51.523438 159.683594 66.230469 159.683594 66.230469 C 159.683594 66.230469 156.535156 40.8125 125.023438 27.785156 C 93.515625 14.765625 66.625 27.15625 56.542969 33.460938 C 46.460938 39.761719 34.277344 50.683594 31.546875 71.480469 "/>
<path style=" stroke:none;fill-rule:nonzero;fill:rgb(100%,94.898987%,7.798767%);fill-opacity:1;" d="M 31.335938 73.582031 C 31.335938 73.582031 64.734375 56.355469 97.925781 55.726563 C 131.117188 55.097656 160.105469 68.75 160.105469 68.75 C 160.105469 68.75 160.105469 65.597656 158.84375 62.65625 C 158.84375 62.65625 139.097656 49.425781 97.925781 50.683594 C 56.753906 51.945313 31.964844 68.121094 31.964844 68.121094 C 31.964844 68.121094 30.707031 69.800781 31.335938 73.582031 "/>
<path style=" stroke:none;fill-rule:nonzero;fill:rgb(100%,94.898987%,7.798767%);fill-opacity:1;" d="M 87.003906 24.636719 C 87.003906 24.636719 85.320313 27.996094 80.910156 27.996094 C 76.5 27.996094 75.449219 22.953125 80.28125 21.066406 C 85.113281 19.175781 87.421875 17.285156 87.421875 17.285156 C 87.421875 17.285156 96.246094 14.765625 100.027344 16.652344 C 103.808594 18.546875 105.90625 16.445313 107.167969 19.386719 C 107.167969 19.386719 116.199219 19.386719 114.101563 24.636719 C 114.101563 24.636719 114.101563 27.15625 110.109375 27.578125 C 106.117188 27.996094 105.90625 26.105469 105.90625 26.105469 C 105.90625 26.105469 104.648438 29.046875 100.445313 29.257813 C 96.246094 29.46875 96.664063 25.476563 93.515625 26.738281 C 90.363281 27.996094 88.894531 30.730469 87.003906 24.636719 "/>
<path style=" stroke:none;fill-rule:nonzero;fill:rgb(100%,100%,100%);fill-opacity:1;" d="M 69.160156 68.503906 C 73.117188 59.085938 82.855469 54.195313 90.910156 57.578125 C 98.964844 60.964844 102.289063 71.339844 98.332031 80.757813 C 94.375 90.175781 84.636719 95.066406 76.582031 91.683594 C 68.527344 88.300781 65.207031 77.921875 69.160156 68.503906 "/>
<path style=" stroke:none;fill-rule:nonzero;fill:rgb(100%,100%,100%);fill-opacity:1;" d="M 130.679688 68.503906 C 126.726563 59.085938 116.988281 54.195313 108.933594 57.578125 C 100.878906 60.964844 97.554688 71.339844 101.511719 80.757813 C 105.46875 90.175781 115.203125 95.066406 123.261719 91.683594 C 131.316406 88.300781 134.636719 77.921875 130.679688 68.503906 "/>
<path style=" stroke:none;fill-rule:nonzero;fill:rgb(13.699341%,12.199402%,12.5%);fill-opacity:1;" d="M 90.363281 75.683594 C 90.363281 76.84375 89.5625 77.78125 88.578125 77.78125 C 87.59375 77.78125 86.792969 76.84375 86.792969 75.683594 C 86.792969 74.519531 87.59375 73.582031 88.578125 73.582031 C 89.5625 73.582031 90.363281 74.519531 90.363281 75.683594 "/>
<path style=" stroke:none;fill-rule:nonzero;fill:rgb(13.699341%,12.199402%,12.5%);fill-opacity:1;" d="M 110.949219 75.683594 C 110.949219 76.84375 110.148438 77.78125 109.164063 77.78125 C 108.179688 77.78125 107.378906 76.84375 107.378906 75.683594 C 107.378906 74.519531 108.179688 73.582031 109.164063 73.582031 C 110.148438 73.582031 110.949219 74.519531 110.949219 75.683594 "/>
<path style=" stroke:none;fill-rule:nonzero;fill:rgb(100%,94.898987%,7.798767%);fill-opacity:1;" d="M 15.371094 118.746094 C 15.371094 118.746094 29.234375 121.054688 36.378906 127.148438 C 43.519531 133.238281 48.769531 140.382813 37.425781 142.480469 C 26.082031 144.582031 23.144531 142.480469 17.472656 142.902344 C 11.800781 143.320313 3.816406 132.820313 12.011719 121.898438 L 15.371094 118.746094 "/>
<path style=" stroke:none;fill-rule:nonzero;fill:rgb(100%,94.898987%,7.798767%);fill-opacity:1;" d="M 165.777344 116.644531 C 165.777344 116.644531 159.472656 118.324219 157.164063 126.515625 C 157.164063 126.515625 154.433594 130.089844 153.800781 131.976563 C 153.171875 133.867188 152.121094 138.28125 160.523438 137.019531 C 168.925781 135.757813 167.667969 141.011719 172.078125 141.640625 C 176.488281 142.273438 188.671875 138.910156 182.582031 123.785156 C 182.582031 123.785156 182.582031 115.175781 175.019531 114.964844 C 167.457031 114.753906 165.777344 116.644531 165.777344 116.644531 "/>
<path style=" stroke:none;fill-rule:nonzero;fill:rgb(13.699341%,12.199402%,12.5%);fill-opacity:1;" d="M 167.023438 177.292969 L 97.855469 177.292969 C 97.855469 177.292969 108.164063 174.351563 130.09375 174.351563 C 152.027344 174.351563 167.023438 177.292969 167.023438 177.292969 "/>
<path style=" stroke:none;fill-rule:nonzero;fill:rgb(13.699341%,12.199402%,12.5%);fill-opacity:1;" d="M 101.382813 177.292969 L 32.210938 177.292969 C 32.210938 177.292969 42.523438 174.351563 64.453125 174.351563 C 86.386719 174.351563 101.382813 177.292969 101.382813 177.292969 "/>
</g>
</svg>
