<?xml version="1.0" encoding="UTF-8"?>
<svg xmlns="http://www.w3.org/2000/svg" xmlns:xlink="http://www.w3.org/1999/xlink" width="193pt" height="193pt" viewBox="0 0 193 193" version="1.1">
<g id="surface1">
<path style=" stroke:none;fill-rule:evenodd;fill:rgb(100%,100%,100%);fill-opacity:1;" d="M 0 0.242188 L 192.757813 0.242188 L 192.757813 193 L 0 193 L 0 0.242188 "/>
<path style=" stroke:none;fill-rule:nonzero;fill:rgb(95.698547%,60.398865%,17.999268%);fill-opacity:1;" d="M 52.082031 122.242188 C 52.082031 122.242188 42.027344 147.144531 40.109375 158.15625 L 50.644531 167.734375 L 57.347656 170.609375 L 56.871094 181.625 L 132.53125 181.625 L 133.96875 170.128906 L 147.378906 162.945313 C 147.378906 162.945313 145.941406 133.734375 136.84375 126.074219 L 52.082031 122.242188 "/>
<path style=" stroke:none;fill-rule:nonzero;fill:rgb(68.199158%,43.499756%,11.799622%);fill-opacity:1;" d="M 30.054688 75.3125 C 30.054688 38.550781 59.746094 8.746094 96.378906 8.746094 C 133.007813 8.746094 162.703125 38.550781 162.703125 75.3125 C 162.703125 112.074219 133.007813 141.875 96.378906 141.875 C 59.746094 141.875 30.054688 112.074219 30.054688 75.3125 "/>
<path style=" stroke:none;fill-rule:nonzero;fill:rgb(95.698547%,60.398865%,17.999268%);fill-opacity:1;" d="M 31.488281 75.3125 C 31.488281 39.347656 60.539063 10.191406 96.378906 10.191406 C 132.214844 10.191406 161.265625 39.347656 161.265625 75.3125 C 161.265625 111.277344 132.214844 140.433594 96.378906 140.433594 C 60.539063 140.433594 31.488281 111.277344 31.488281 75.3125 "/>
<path style=" stroke:none;fill-rule:nonzero;fill:rgb(97.299194%,87.799072%,81.599426%);fill-opacity:1;" d="M 95.523438 41.3125 C 95.523438 41.3125 63.097656 44.664063 62.136719 70.523438 C 61.179688 96.382813 73.632813 110.269531 95.179688 110.269531 C 116.730469 110.269531 135.886719 82.496094 128.222656 67.648438 C 120.5625 52.804688 111.671875 43.226563 95.523438 41.3125 "/>
<path style=" stroke:none;fill-rule:nonzero;fill:rgb(100%,100%,100%);fill-opacity:1;" d="M 59.859375 68.226563 C 64.503906 57.171875 75.933594 51.429688 85.390625 55.402344 C 94.847656 59.375 98.746094 71.554688 94.101563 82.613281 C 89.457031 93.667969 78.027344 99.410156 68.570313 95.4375 C 59.113281 91.464844 55.214844 79.28125 59.859375 68.226563 "/>
<path style=" stroke:none;fill-rule:nonzero;fill:rgb(100%,100%,100%);fill-opacity:1;" d="M 132.078125 68.226563 C 127.433594 57.171875 116.003906 51.429688 106.550781 55.402344 C 97.089844 59.375 93.191406 71.554688 97.835938 82.613281 C 102.480469 93.667969 113.910156 99.410156 123.367188 95.4375 C 132.824219 91.464844 136.722656 79.28125 132.078125 68.226563 "/>
<path style=" stroke:none;fill-rule:nonzero;fill:rgb(13.699341%,12.199402%,12.5%);fill-opacity:1;" d="M 86.910156 76.113281 C 86.910156 77.574219 85.90625 78.753906 84.667969 78.753906 C 83.425781 78.753906 82.421875 77.574219 82.421875 76.113281 C 82.421875 74.65625 83.425781 73.476563 84.667969 73.476563 C 85.90625 73.476563 86.910156 74.65625 86.910156 76.113281 "/>
<path style=" stroke:none;fill-rule:nonzero;fill:rgb(13.699341%,12.199402%,12.5%);fill-opacity:1;" d="M 109.976563 75.636719 C 109.976563 77.09375 108.972656 78.277344 107.730469 78.277344 C 106.492188 78.277344 105.488281 77.09375 105.488281 75.636719 C 105.488281 74.179688 106.492188 72.996094 107.730469 72.996094 C 108.972656 72.996094 109.976563 74.179688 109.976563 75.636719 "/>
<path style=" stroke:none;fill-rule:nonzero;fill:rgb(71.398926%,45.498657%,12.5%);fill-opacity:1;" d="M 56.390625 62.859375 C 56.390625 62.859375 41.546875 77.226563 55.433594 99.257813 C 69.320313 121.285156 96.617188 125.117188 116.730469 115.539063 C 136.84375 105.960938 145.464844 82.972656 134.449219 62.859375 L 133.011719 59.988281 C 133.011719 59.988281 142.589844 69.085938 140.195313 86.804688 C 137.800781 104.523438 124.871094 115.058594 109.066406 119.847656 C 93.265625 124.636719 68.84375 121.761719 55.433594 101.652344 C 42.027344 81.535156 51.125 68.609375 56.390625 62.859375 "/>
<path style=" stroke:none;fill-rule:nonzero;fill:rgb(71.398926%,45.498657%,12.5%);fill-opacity:1;" d="M 94.222656 141.398438 L 94.222656 174.917969 C 94.222656 174.917969 73.152344 175.398438 53.996094 169.652344 C 53.996094 169.652344 96.140625 185.933594 133.96875 170.128906 C 133.96875 170.128906 109.546875 176.832031 96.617188 174.917969 L 96.378906 141.875 L 94.222656 141.398438 "/>
<path style=" stroke:none;fill-rule:nonzero;fill:rgb(71.398926%,45.498657%,12.5%);fill-opacity:1;" d="M 134.449219 155.285156 C 132.53125 151.933594 128.222656 144.269531 128.222656 144.269531 L 130.140625 143.3125 L 137.320313 156.722656 L 134.449219 155.285156 "/>
<path style=" stroke:none;fill-rule:nonzero;fill:rgb(71.398926%,45.498657%,12.5%);fill-opacity:1;" d="M 55.914063 156.242188 C 56.871094 153.371094 58.785156 146.183594 61.179688 146.183594 L 58.785156 146.183594 C 58.785156 146.183594 53.996094 152.890625 54.476563 156.722656 L 55.914063 156.242188 "/>
<path style=" stroke:none;fill-rule:nonzero;fill:rgb(56.898499%,36.499023%,27.799988%);fill-opacity:1;" d="M 36.277344 160.550781 C 36.277344 154.996094 40.78125 150.496094 46.335938 150.496094 C 51.890625 150.496094 56.390625 154.996094 56.390625 160.550781 C 56.390625 166.105469 51.890625 170.609375 46.335938 170.609375 C 40.78125 170.609375 36.277344 166.105469 36.277344 160.550781 "/>
<path style=" stroke:none;fill-rule:nonzero;fill:rgb(56.898499%,36.499023%,27.799988%);fill-opacity:1;" d="M 49.6875 156.722656 C 49.6875 154.339844 51.832031 152.410156 54.476563 152.410156 C 57.121094 152.410156 59.265625 154.339844 59.265625 156.722656 C 59.265625 159.101563 57.121094 161.03125 54.476563 161.03125 C 51.832031 161.03125 49.6875 159.101563 49.6875 156.722656 "/>
<path style=" stroke:none;fill-rule:nonzero;fill:rgb(56.898499%,36.499023%,27.799988%);fill-opacity:1;" d="M 152.644531 160.550781 C 152.644531 154.996094 148.144531 150.496094 142.589844 150.496094 C 137.035156 150.496094 132.53125 154.996094 132.53125 160.550781 C 132.53125 166.105469 137.035156 170.609375 142.589844 170.609375 C 148.144531 170.609375 152.644531 166.105469 152.644531 160.550781 "/>
<path style=" stroke:none;fill-rule:nonzero;fill:rgb(56.898499%,36.499023%,27.799988%);fill-opacity:1;" d="M 139.238281 156.722656 C 139.238281 154.339844 137.09375 152.410156 134.449219 152.410156 C 131.804688 152.410156 129.660156 154.339844 129.660156 156.722656 C 129.660156 159.101563 131.804688 161.03125 134.449219 161.03125 C 137.09375 161.03125 139.238281 159.101563 139.238281 156.722656 "/>
<path style=" stroke:none;fill-rule:nonzero;fill:rgb(13.699341%,12.199402%,12.5%);fill-opacity:1;" d="M 52.082031 184.496094 L 137.320313 184.496094 C 137.320313 184.496094 137.800781 180.664063 133.011719 179.707031 L 57.347656 179.707031 C 57.347656 179.707031 52.082031 180.664063 52.082031 184.496094 "/>
<path style=" stroke:none;fill-rule:nonzero;fill:rgb(56.898499%,36.499023%,27.799988%);fill-opacity:1;" d="M 95.660156 41.3125 C 95.660156 41.3125 65.488281 56.15625 70.757813 81.058594 C 76.027344 105.960938 98.054688 110.269531 98.054688 110.269531 C 98.054688 110.269531 69.320313 116.496094 59.265625 95.902344 C 49.207031 75.3125 55.433594 57.59375 68.84375 48.015625 C 82.25 38.4375 95.660156 41.3125 95.660156 41.3125 "/>
<path style=" stroke:none;fill-rule:nonzero;fill:rgb(56.898499%,36.499023%,27.799988%);fill-opacity:1;" d="M 95.523438 41.3125 C 95.523438 41.3125 125.695313 56.15625 120.425781 81.058594 C 115.15625 105.960938 93.128906 110.269531 93.128906 110.269531 C 93.128906 110.269531 121.863281 116.496094 131.917969 95.902344 C 141.976563 75.3125 135.75 57.59375 122.339844 48.015625 C 108.933594 38.4375 95.523438 41.3125 95.523438 41.3125 "/>
<path style=" stroke:none;fill-rule:nonzero;fill:rgb(13.699341%,12.199402%,12.5%);fill-opacity:1;" d="M 95.179688 108.835938 C 95.179688 108.835938 90.871094 111.226563 93.265625 113.144531 C 93.265625 113.144531 92.308594 120.328125 92.308594 124.636719 C 92.308594 128.945313 89.433594 130.382813 89.433594 130.382813 C 89.433594 130.382813 93.742188 133.734375 95.179688 125.59375 C 96.617188 117.453125 93.742188 121.761719 96.617188 113.144531 C 96.617188 113.144531 99.96875 113.621094 99.492188 125.117188 C 99.011719 136.609375 100.449219 134.691406 102.84375 134.691406 C 102.84375 134.691406 105.714844 131.339844 101.886719 131.339844 C 101.886719 131.339844 103.800781 119.367188 99.011719 111.707031 C 99.011719 111.707031 97.097656 104.523438 95.179688 108.835938 "/>
</g>
</svg>
