<?xml version="1.0" encoding="UTF-8"?>
<svg xmlns="http://www.w3.org/2000/svg" xmlns:xlink="http://www.w3.org/1999/xlink" width="193pt" height="193pt" viewBox="0 0 193 193" version="1.1">
<g id="surface1">
<path style=" stroke:none;fill-rule:evenodd;fill:rgb(100%,100%,100%);fill-opacity:1;" d="M 0 0.242188 L 192.757813 0.242188 L 192.757813 193 L 0 193 L 0 0.242188 "/>
<path style=" stroke:none;fill-rule:nonzero;fill:rgb(36.898804%,41.19873%,49.398804%);fill-opacity:1;" d="M 59.34375 169.175781 L 59.34375 184.085938 L 133.703125 184.085938 L 133.703125 166.925781 L 59.34375 169.175781 "/>
<path style=" stroke:none;fill-rule:nonzero;fill:rgb(96.499634%,68.199158%,15.699768%);fill-opacity:1;" d="M 55.054688 115.652344 C 55.054688 115.652344 44.839844 132.8125 42.59375 141.394531 C 40.347656 149.972656 37.894531 155.078125 39.9375 162.433594 C 41.980469 169.785156 52.398438 169.582031 52.398438 169.582031 C 52.398438 169.582031 66.496094 173.875 94.480469 173.875 C 122.46875 173.875 137.992188 171.011719 146.570313 167.949219 L 152.089844 158.960938 C 152.089844 158.960938 151.269531 139.144531 135.335938 115.652344 L 55.054688 115.652344 "/>
<path style=" stroke:none;fill-rule:nonzero;fill:rgb(82.699585%,58.799744%,13.299561%);fill-opacity:1;" d="M 54.851563 156.511719 L 60.980469 142.824219 L 58.9375 142.617188 L 53.828125 156.101563 L 54.851563 156.511719 "/>
<path style=" stroke:none;fill-rule:nonzero;fill:rgb(82.699585%,58.799744%,13.299561%);fill-opacity:1;" d="M 129.820313 144.867188 L 136.152344 158.144531 L 137.789063 156.917969 L 130.84375 144.457031 L 129.820313 144.867188 "/>
<path style=" stroke:none;fill-rule:nonzero;fill:rgb(82.699585%,58.799744%,13.299561%);fill-opacity:1;" d="M 72.417969 139.757813 L 72.214844 157.941406 C 72.214844 157.941406 73.234375 159.980469 80.386719 159.980469 C 87.535156 159.980469 89.167969 157.53125 89.167969 157.53125 L 89.167969 139.960938 C 89.167969 139.960938 80.386719 136.898438 72.417969 139.757813 Z M 87.535156 140.78125 L 80.179688 146.90625 L 73.847656 140.78125 C 81.203125 138.738281 87.535156 140.78125 87.535156 140.78125 Z M 73.234375 157.941406 L 73.644531 142.007813 L 80.179688 147.929688 L 87.738281 141.597656 L 87.945313 156.714844 C 87.945313 156.714844 86.921875 160.59375 73.234375 157.941406 "/>
<path style=" stroke:none;fill-rule:nonzero;fill:rgb(82.699585%,58.799744%,13.299561%);fill-opacity:1;" d="M 105.71875 139.347656 L 105.511719 157.53125 C 105.511719 157.53125 106.53125 159.574219 113.683594 159.574219 C 120.832031 159.574219 122.46875 157.121094 122.46875 157.121094 L 122.46875 139.554688 C 122.46875 139.554688 113.683594 136.488281 105.71875 139.347656 Z M 120.832031 140.371094 L 113.480469 146.5 L 107.144531 140.371094 C 114.5 138.328125 120.832031 140.371094 120.832031 140.371094 Z M 106.53125 157.53125 L 106.941406 141.597656 L 113.480469 147.519531 L 121.035156 141.1875 L 121.242188 156.304688 C 121.242188 156.304688 120.21875 160.1875 106.53125 157.53125 "/>
<path style=" stroke:none;fill-rule:nonzero;fill:rgb(0%,53.29895%,78.799438%);fill-opacity:1;" d="M 55.054688 115.652344 L 135.949219 115.652344 C 135.949219 115.652344 134.3125 121.375 122.46875 127.503906 C 110.617188 133.632813 105.308594 136.898438 97.339844 132.8125 C 97.339844 132.8125 93.253906 136.695313 85.492188 134.855469 C 77.730469 133.019531 63.226563 125.867188 54.441406 115.652344 L 55.054688 115.652344 "/>
<path style=" stroke:none;fill-rule:nonzero;fill:rgb(97.299194%,87.799072%,81.599426%);fill-opacity:1;" d="M 37.351563 76.296875 C 37.351563 46.210938 63.445313 21.820313 95.640625 21.820313 C 127.828125 21.820313 153.925781 46.210938 153.925781 76.296875 C 153.925781 106.378906 127.828125 130.769531 95.640625 130.769531 C 63.445313 130.769531 37.351563 106.378906 37.351563 76.296875 "/>
<path style=" stroke:none;fill-rule:nonzero;fill:rgb(100%,100%,100%);fill-opacity:1;" d="M 63.773438 69.328125 C 68.003906 59.257813 78.414063 54.027344 87.027344 57.644531 C 95.640625 61.265625 99.191406 72.359375 94.960938 82.429688 C 90.730469 92.496094 80.320313 97.726563 71.710938 94.109375 C 63.097656 90.492188 59.542969 79.394531 63.773438 69.328125 "/>
<path style=" stroke:none;fill-rule:nonzero;fill:rgb(100%,100%,100%);fill-opacity:1;" d="M 129.550781 69.328125 C 125.320313 59.257813 114.910156 54.027344 106.296875 57.644531 C 97.683594 61.265625 94.132813 72.359375 98.363281 82.429688 C 102.59375 92.496094 113.003906 97.726563 121.617188 94.109375 C 130.226563 90.492188 133.777344 79.394531 129.550781 69.328125 "/>
<path style=" stroke:none;fill-rule:nonzero;fill:rgb(13.699341%,12.199402%,12.5%);fill-opacity:1;" d="M 87.824219 76.738281 C 87.824219 78.054688 86.914063 79.121094 85.796875 79.121094 C 84.679688 79.121094 83.773438 78.054688 83.773438 76.738281 C 83.773438 75.421875 84.679688 74.355469 85.796875 74.355469 C 86.914063 74.355469 87.824219 75.421875 87.824219 76.738281 "/>
<path style=" stroke:none;fill-rule:nonzero;fill:rgb(13.699341%,12.199402%,12.5%);fill-opacity:1;" d="M 109.066406 76.738281 C 109.066406 78.054688 108.160156 79.121094 107.042969 79.121094 C 105.925781 79.121094 105.019531 78.054688 105.019531 76.738281 C 105.019531 75.421875 105.925781 74.355469 107.042969 74.355469 C 108.160156 74.355469 109.066406 75.421875 109.066406 76.738281 "/>
<path style=" stroke:none;fill-rule:nonzero;fill:rgb(13.699341%,12.199402%,12.5%);fill-opacity:1;" d="M 82.222656 117.289063 L 109.597656 117.695313 C 109.597656 117.695313 112.660156 116.0625 109.597656 114.019531 C 106.53125 111.976563 102.242188 110.140625 96.726563 110.140625 C 91.210938 110.140625 84.574219 112.691406 82.429688 114.835938 C 80.285156 116.980469 82.222656 117.289063 82.222656 117.289063 "/>
<path style=" stroke:none;fill-rule:nonzero;fill:rgb(27.799988%,71.798706%,28.599548%);fill-opacity:1;" d="M 36.875 161.003906 C 36.875 155.476563 41.355469 150.992188 46.882813 150.992188 C 52.410156 150.992188 56.894531 155.476563 56.894531 161.003906 C 56.894531 166.53125 52.410156 171.011719 46.882813 171.011719 C 41.355469 171.011719 36.875 166.53125 36.875 161.003906 "/>
<path style=" stroke:none;fill-rule:nonzero;fill:rgb(27.799988%,71.798706%,28.599548%);fill-opacity:1;" d="M 52.808594 157.734375 C 52.808594 155.816406 54.363281 154.261719 56.28125 154.261719 C 58.199219 154.261719 59.753906 155.816406 59.753906 157.734375 C 59.753906 159.652344 58.199219 161.207031 56.28125 161.207031 C 54.363281 161.207031 52.808594 159.652344 52.808594 157.734375 "/>
<path style=" stroke:none;fill-rule:nonzero;fill:rgb(27.799988%,71.798706%,28.599548%);fill-opacity:1;" d="M 153.519531 161.003906 C 153.519531 155.476563 149.035156 150.992188 143.507813 150.992188 C 137.980469 150.992188 133.496094 155.476563 133.496094 161.003906 C 133.496094 166.53125 137.980469 171.011719 143.507813 171.011719 C 149.035156 171.011719 153.519531 166.53125 153.519531 161.003906 "/>
<path style=" stroke:none;fill-rule:nonzero;fill:rgb(27.799988%,71.798706%,28.599548%);fill-opacity:1;" d="M 137.585938 157.734375 C 137.585938 155.816406 136.027344 154.261719 134.109375 154.261719 C 132.191406 154.261719 130.636719 155.816406 130.636719 157.734375 C 130.636719 159.652344 132.191406 161.207031 134.109375 161.207031 C 136.027344 161.207031 137.585938 159.652344 137.585938 157.734375 "/>
<path style=" stroke:none;fill-rule:nonzero;fill:rgb(13.699341%,12.199402%,12.5%);fill-opacity:1;" d="M 51.992188 184.496094 L 142.6875 184.496094 C 142.6875 184.496094 136.152344 180.613281 96.933594 180.613281 C 96.933594 180.613281 64.246094 178.570313 51.992188 184.496094 "/>
<path style=" stroke:none;fill-rule:nonzero;fill:rgb(27.799988%,71.798706%,28.599548%);fill-opacity:1;" d="M 52.332031 55.597656 C 52.332031 55.597656 52.875 81.199219 37.078125 98.628906 C 21.28125 116.0625 17.46875 79.019531 39.800781 51.78125 L 39.800781 18.007813 C 39.800781 18.007813 38.167969 8.746094 49.0625 8.746094 C 59.957031 8.746094 145.480469 8.746094 145.480469 8.746094 C 145.480469 8.746094 153.652344 10.929688 153.652344 16.917969 C 153.652344 22.910156 153.652344 50.691406 153.652344 50.691406 C 153.652344 50.691406 172.71875 75.207031 167.816406 96.453125 C 162.914063 117.695313 140.578125 84.46875 140.035156 55.050781 C 140.035156 55.050781 105.171875 40.34375 52.332031 55.597656 "/>
<path style=" stroke:none;fill-rule:nonzero;fill:rgb(17.599487%,53.29895%,20.799255%);fill-opacity:1;" d="M 48.519531 31.082031 L 144.9375 31.082031 L 144.9375 60.496094 C 144.9375 60.496094 104.082031 51.238281 48.519531 61.589844 L 48.519531 31.082031 "/>
</g>
</svg>
